# xmcd
#
# Track frame offsets:
#	150
#	22148
#	36247
#	47809
#	63191
#	81725
#	102955
#	116125
#	131360
#	148302
#	165181
#	186564
#	204113
#	225686
#	239015
#	256662
#	272744
#	287793
#	307818
#	329834
# Disc length: 4657 seconds
# Revision: 1
# Processed by: cddbd v1.5.2PL0 Copyright (c) Steve Scherf et al.
#
# Submitted via: libkcddb 0.31
#
DISCID=2e122f14
DTITLE=Artista Desconhecido - Tķtulo Desconhecido
DYEAR=1900
DGENRE=
TTITLE0=Faixa 01
TTITLE1=Faixa 02
TTITLE2=Faixa 03
TTITLE3=Faixa 04
TTITLE4=Faixa 05
TTITLE5=Faixa 06
TTITLE6=Faixa 07
TTITLE7=Faixa 08
TTITLE8=Faixa 09
TTITLE9=Faixa 10
TTITLE10=Faixa 11
TTITLE11=Faixa 12
TTITLE12=Faixa 13
TTITLE13=Faixa 14
TTITLE14=Faixa 15
TTITLE15=Faixa 16
TTITLE16=Faixa 17
TTITLE17=Faixa 18
TTITLE18=Faixa 19
TTITLE19=Faixa 20
EXTD=
EXTT0=
EXTT1=
EXTT2=
EXTT3=
EXTT4=
EXTT5=
EXTT6=
EXTT7=
EXTT8=
EXTT9=
EXTT10=
EXTT11=
EXTT12=
EXTT13=
EXTT14=
EXTT15=
EXTT16=
EXTT17=
EXTT18=
EXTT19=
PLAYORDER=
